PathFileType	4	(X/Y/Z)	39_2_24_p0_0-905_filt_butterworth.trc
DataRate	CameraRate	NumFrames	NumMarkers	Units	OrigDataRate	OrigDataStartFrame	OrigNumFrames
59.0	59.0	6	27	m	59.0	678	905
Frame#	Time	RHip			RKnee			RAnkle			RBigToe			RSmallToe			RHeel			LHip			LKnee			LAnkle			LBigToe			LSmallToe			LHeel			Neck			Head			Nose			RShoulder			RElbow			RWrist			RThumb			RIndex			RPinky			LShoulder			LElbow			LWrist			LThumb			LIndex			LPinky			
		X1	Y1	Z1	X2	Y2	Z2	X3	Y3	Z3	X4	Y4	Z4	X5	Y5	Z5	X6	Y6	Z6	X7	Y7	Z7	X8	Y8	Z8	X9	Y9	Z9	X10	Y10	Z10	X11	Y11	Z11	X12	Y12	Z12	X13	Y13	Z13	X14	Y14	Z14	X15	Y15	Z15	X16	Y16	Z16	X17	Y17	Z17	X18	Y18	Z18	X19	Y19	Z19	X20	Y20	Z20	X21	Y21	Z21	X22	Y22	Z22	X23	Y23	Z23	X24	Y24	Z24	X25	Y25	Z25	X26	Y26	Z26	X27	Y27	Z27	
678	11.491525423728811	0.32564231342775135	0.5920276118116192	0.5680782713735107	0.2557673934564233	0.6937584847702657	0.9524021944351247	0.23708034391159966	0.7938033236777902	1.3175851475248248	0.2202572605400164	0.6832287143691229	1.367355042012591	0.2731965206110016	0.6999037527151996	1.3696703236856418	0.2123978513857411	0.8986670718964578	1.396868697580612	0.1030371208579136	0.5877965895042211	0.561970415128596	0.10926129000460481	0.6692646194987125	0.9418423573212755	0.03507988087853582	0.815995453929953	1.3342865171590557	0.06013248434831082	0.6270674603371997	1.3322594043970781	-0.0002896459956772221	0.6800604559307184	1.3394664278435273	0.03987453639251383	0.8599032761822105	1.3772667387034743	0.19220866700669106	0.5768891122023911	0.0011514908959723324	0.18171569893598935	0.515175628575505	-0.24168163426677078	0.21246565913460777	0.44741550645673983	-0.10052770438933846	0.3566402616653966	0.5958441066409158	0.0802182046769386	0.43141266468269834	0.6197839963787969	0.32812822975324635	0.41553922404630583	0.5458501502618629	0.5679432329236993	0.3749782301929589	0.5297336906858439	0.6797517182232865	0.39054378633758946	0.532696487911255	0.6839659890099149	0.41691802836246705	0.550211134134805	0.6791759905870303	0.048548083708893755	0.5657500851392306	0.09151376524115246	-0.00740108294974741	0.5931421364659668	0.3640396262760274	-0.02870387483668569	0.5277849698775485	0.6157905174962668	-0.012003560383208394	0.5056006622985503	0.7088263191775387	-0.02473814237415291	0.4961911229971617	0.7274659283244846	-0.06144238200734098	0.5402279730159659	0.7264291784104604
679	11.508474576271189	0.32452645359725196	0.5876488462638589	0.5670781622235108	0.25593318029809353	0.6928200518392568	0.9498097778301816	0.23704408423527457	0.7939976615655779	1.3172398201136466	0.22029983870193212	0.6833888530903292	1.367369303382432	0.27385997768876025	0.699699098412397	1.3695557680269381	0.21227581695653053	0.8985198862286794	1.3954674372242617	0.10382453325838986	0.5865373693836942	0.5638714381301282	0.11060909858113954	0.6647659923728669	0.9400506605535291	0.03381153299398477	0.8153595987508013	1.3339384315454597	0.060142154808049596	0.6272252766167739	1.3323392508133074	0.0007973849208253925	0.684374802464176	1.3414557727938308	0.04001931291384157	0.858279951792	1.3757370077526958	0.19052093498779993	0.5803459014682943	0.0011652906922769999	0.17826962674447133	0.521477334317124	-0.2415139256433718	0.2102891827689573	0.44784251659647456	-0.10077981438487252	0.3565962857021284	0.5960865297741998	0.07933972740196853	0.43315441632957685	0.6204883836481894	0.3244164825684002	0.41350873751586414	0.5423169490820008	0.5669192421848207	0.370729812285448	0.5301000040080822	0.6792697676910078	0.38533243784864457	0.5323540166404274	0.6839982780471594	0.4163803573309559	0.5502883967028372	0.6777436582875973	0.046523069318575645	0.5686474030160288	0.09415047827301537	-0.005145127660090856	0.5878592778250619	0.3656232960256893	-0.026232616704891375	0.522755308402811	0.6146681392143136	-0.009425874721263624	0.5057942434899693	0.7076771932257736	-0.022044969551362883	0.4935776918597995	0.7258499351010662	-0.050128353842101556	0.5249840209300363	0.721754528443059
680	11.52542372881356	0.3235495607786767	0.5845394963344586	0.5663709150981312	0.2561259035354899	0.6920151064595281	0.9463685932157944	0.23699857595337614	0.7942696588006667	1.3161691373922155	0.2203061502846927	0.68345944180461	1.3672755722297325	0.27532310364169466	0.6995015388115151	1.3694863444389918	0.2120645874288571	0.8968518703905908	1.3928275957089036	0.10416192387176834	0.5869130547779726	0.566854402698248	0.11136056473816885	0.6633067741573634	0.9385080034593135	0.03324885464602059	0.814968892086918	1.3337124701892251	0.06009514216211932	0.6270798214656802	1.3321106246982204	0.0033295466014520705	0.689407256851131	1.3438308295932464	0.04172461604858461	0.8541015954110793	1.3730876940316572	0.18782357809064065	0.5847524115918545	0.0011835769212034596	0.1750671677511629	0.5265509021557464	-0.24159078022820724	0.20743907679688808	0.4493302667395132	-0.10139438666388007	0.35650760802104003	0.5963705984631771	0.07825418859350944	0.43483563430238625	0.620099611859338	0.3208334179277919	0.4127129257421547	0.5409284806096808	0.5661813539049199	0.36575734679638966	0.5292258393023427	0.6772238969227391	0.38015719550238775	0.5305507640716592	0.6836882849794321	0.4147812870007298	0.5501153286223505	0.6762776453283769	0.044487091027916786	0.5727597095433579	0.096325466076051	-0.0033703954590967545	0.5833960093742504	0.36711309487374794	-0.024296682852520197	0.5195547892074838	0.6139081250082808	-0.004812953641918422	0.5037197345240306	0.7068969033885192	-0.020122980802273326	0.4934495731277129	0.7263185415638913	-0.041602240667407385	0.5145217701434968	0.718991320042609
681	11.542372881355933	0.3231583682904143	0.5834147275991471	0.566107644060161	0.25626309610829523	0.6916689097917375	0.9438644750003358	0.2369342215768179	0.7945803471457108	1.3147234221970976	0.22025880527827693	0.6833895369180482	1.3670880688980853	0.2771437905525694	0.6993930777239515	1.369461236049395	0.2117272732077029	0.8927194622164453	1.3896641544822717	0.1044901887630951	0.5879945681950043	0.5691972670081641	0.11094509060363009	0.6650874214640579	0.9373043385323385	0.03322113662287143	0.8146709293025808	1.333624359924996	0.06000295787279382	0.6266523147936436	1.3314135990934484	0.0051924910147526145	0.6918800834496324	1.3449915698888826	0.04421218322510527	0.848342210727278	1.3696548315329002	0.18507820274595338	0.5875291042787103	0.001180311049010787	0.17226514354187328	0.5297676707041352	-0.24223438337038805	0.205223607111868	0.45202885291042605	-0.10207062935957206	0.35643464203861935	0.5965479977355941	0.07730804074553611	0.4356311823268542	0.619632834194999	0.31783164364795524	0.4127156108726079	0.5408611472809851	0.565521544185732	0.35978753495794835	0.5255862521519322	0.6736511692387326	0.37516159050187725	0.5256786479960196	0.682379631877779	0.41188790366146455	0.5499628280062736	0.6748547187472315	0.04310176630669776	0.5758832101564348	0.09734528917035659	-0.0015320135893184092	0.5790092127294074	0.3682486521043407	-0.022140017910952933	0.5169922095666217	0.6134099682859464	0.0028301799557858393	0.49629740934052147	0.7063410341781012	-0.017459892413928948	0.49380140051526483	0.7281927621804903	-0.035863765956139236	0.5083079008058373	0.7181311985699099
682	11.559322033898304	0.3234340091860575	0.584578412786052	0.5663558721185182	0.25634635464820876	0.6918871068480813	0.9434184821111133	0.2368608726171296	0.7948162742932934	1.3136421278641868	0.2201963326828682	0.6832116317642745	1.3668276194299507	0.2783400999385078	0.6996764434598534	1.3695441061090894	0.21123079239395748	0.8873577624485502	1.3874571685971588	0.10481591975200966	0.5902541464410762	0.5704279963425283	0.10941007089215286	0.6695160826410652	0.9367008435928907	0.03371579663625068	0.8145368414101318	1.3337095190819042	0.05992697095896818	0.6262643209178749	1.33019753332565	0.005907035548033925	0.6898810395461922	1.344007263497025	0.04618611109869186	0.8437525518658109	1.3668333576108926	0.18319495194177499	0.587095498051097	0.0011182390240273249	0.17017205505946012	0.5319947833978946	-0.24337357528731662	0.20407829045428982	0.4543715949006727	-0.10274583582722921	0.3564141084053932	0.5964503254129342	0.076171933848899	0.4351344577911307	0.6194616614854117	0.31551616074218614	0.41271013478623325	0.5411964267945268	0.5645889512022227	0.3532359113158318	0.5195132341395929	0.6689259487132801	0.3696254676840024	0.5177852523606238	0.6795266542146391	0.4083009797404663	0.5501449734811591	0.6736096131941078	0.04261624867689572	0.5770509949039525	0.09751190297242353	0.0005002825474462837	0.574738124539887	0.36954253859674935	-0.019244170617529543	0.5136117598568452	0.6127566791321393	0.01402904291036703	0.48441270018474974	0.7058532802989304	-0.012352971918240798	0.4898640988436991	0.7291264286698841	-0.03175002338724187	0.5049340184469625	0.7187882188565293
683	11.576271186440678	0.3243881447450115	0.5883580758718973	0.5671893113581752	0.25644972448809517	0.6926253688241993	0.9447559830589367	0.23679634725338825	0.7949293593562413	1.3132489186325116	0.2202657466388625	0.6833858685345285	1.366699891088253	0.27851657924710604	0.7006231256600757	1.3698200939990952	0.21050610653716012	0.8834465570849174	1.3867568094930451	0.1047154453851223	0.5945724680950243	0.5712975889584059	0.10791297590689705	0.6747219297250098	0.9366741955422876	0.03490474815545032	0.8149802358443335	1.3339928781997532	0.059898850337706214	0.6261956096508068	1.3281881477079167	0.00651946690502022	0.6850936115073758	1.3416911165993728	0.04689460116720958	0.8421064312635773	1.3657057585463939	0.18208709126485095	0.5837065926130972	0.000976655057359711	0.16848677525709072	0.5349359288369285	-0.24443442974317864	0.20338618085715177	0.4541739949838345	-0.1036649270018299	0.35644439114707144	0.5960110940110999	0.07417912163239063	0.43391709228339437	0.6195864535502248	0.3139671747848384	0.4119051340545171	0.5416561792823433	0.5634331336414617	0.3470688405447147	0.513655524272361	0.6635020999921631	0.363279272271398	0.5088558321448685	0.6751971822570103	0.4051792081627552	0.5506137091808635	0.6727844169842452	0.0426435836986708	0.5769937329118819	0.09738094296200196	0.0020825498347983233	0.5718739166871516	0.37155209605161504	-0.015546616855862887	0.5097687633129473	0.61194143337321	0.028190148540539244	0.4743537308600203	0.7058315218583326	-0.003299637446519891	0.4778011407973418	0.7267899492615253	-0.028286675278757875	0.5036228525631761	0.7205320422905435
